<svg xmlns="http://www.w3.org/2000/svg" viewBox="0 0 157.8 112"><defs><style>.f9ee43f4-703c-4c12-b7a0-475b6256182c,.fc4cf20d-6633-46c7-ad16-fcb88a2fe5ea{fill:#fff;}.f9ee43f4-703c-4c12-b7a0-475b6256182c{font-size:25px;font-family:Bauhaus93, "Bauhaus 93";letter-spacing:0.05em;}</style></defs><g id="bb7b8331-38e3-40c3-8eff-2e13cc408cf3" data-name="LOGO"><path class="fc4cf20d-6633-46c7-ad16-fcb88a2fe5ea" d="M137.9,28.1a9.3,9.3,0,0,0-7.2-3.3H110.8a9.5,9.5,0,0,0-7.8,4.1L99.7,34h43.1ZM130.3,32H111V27.8h19.3Z" transform="translate(-43.3 -24.8)"/><path class="fc4cf20d-6633-46c7-ad16-fcb88a2fe5ea" d="M169.5,31.5a2.8,2.8,0,0,0-2.3-1.4h-6.6a2.9,2.9,0,0,0-2.5,1.8L157,34h14.1Z" transform="translate(-43.3 -24.8)"/><path class="fc4cf20d-6633-46c7-ad16-fcb88a2fe5ea" d="M81.9,32.1a2,2,0,0,0-1.6-1H76a1.9,1.9,0,0,0-1.7,1.3L73.5,34H83Z" transform="translate(-43.3 -24.8)"/><path class="fc4cf20d-6633-46c7-ad16-fcb88a2fe5ea" d="M175.3,35.4H69.3A12.2,12.2,0,0,0,57.2,47.6V62.1H89.7a39.9,39.9,0,0,1,65.3,0h32.5V47.6A12.2,12.2,0,0,0,175.3,35.4Z" transform="translate(-43.3 -24.8)"/><path class="fc4cf20d-6633-46c7-ad16-fcb88a2fe5ea" d="M122.3,124.8a39.9,39.9,0,0,1-30.8-14.7H57.2v14.5a12.2,12.2,0,0,0,12.1,12.2h106a12.2,12.2,0,0,0,12.2-12.2V110.1H153.2A39.9,39.9,0,0,1,122.3,124.8Z" transform="translate(-43.3 -24.8)"/><text class="f9ee43f4-703c-4c12-b7a0-475b6256182c" transform="translate(0 72.7)">GIO ESTUDIO</text></g></svg>